<svg width="352" height="353" viewBox="0 0 352 353" fill="none" xmlns="http://www.w3.org/2000/svg">
<path d="M128.289 0.119433C131.192 -0.140367 136.822 0.102131 139.937 0.118831L317.072 0.10123C320.551 0.0975297 324.843 -0.121672 328.171 0.262828C351.189 2.92223 351.37 23.4898 351.367 40.6628L351.375 217.082C351.445 225.555 352.349 232.64 346.255 239.466C335.878 251.092 316.167 246.607 301.44 247.034H297.285L297.298 263.602C297.291 289.232 290.479 296.324 264.962 296.306L248.559 296.289C248.846 301.402 249.406 321.078 248.559 326.084C250.384 338.532 236.714 351.766 224.735 351.878L36.785 352.055C7.71156 352.14 0.0642607 342.176 0.122761 313.55L0.123562 139.286C0.123962 138.022 0.220464 136.217 0.125164 135.045C-1.39284 116.383 11.0632 105.096 28.452 103.482C37.273 103.267 46.984 103.478 55.877 103.482C55.856 88.0638 52.56 70.3718 64.452 59.0688C74.617 49.4068 90.568 51.3998 104.089 51.7578L104.072 34.3948C104.052 17.6949 107.213 1.48283 128.289 0.119433Z" fill="url(#paint0_linear_1095_27901)"/>
<path d="M128.289 0.119433C131.192 -0.140367 136.822 0.102131 139.937 0.118831L317.072 0.10123C320.551 0.0975297 324.843 -0.121672 328.171 0.262828C351.189 2.92223 351.37 23.4898 351.367 40.6628L351.375 217.082C351.445 225.555 352.349 232.64 346.255 239.466C335.878 251.092 316.167 246.607 301.44 247.034H297.285L297.298 263.602C297.291 289.232 290.479 296.324 264.962 296.306L248.559 296.289V172.941C248.563 158.789 248.685 144.528 248.447 130.388C248.111 112.647 233.78 102.78 216.905 103.453C206.676 103.861 195.996 103.015 185.796 103.482C181.756 103.207 174.915 103.475 170.639 103.479L140.486 103.483C112.463 103.48 83.85 103.162 55.877 103.482C55.856 88.0638 52.56 70.3718 64.452 59.0688C74.617 49.4068 90.568 51.3998 104.089 51.7578L104.072 34.3948C104.052 17.6949 107.213 1.48283 128.289 0.119433Z" fill="#FFC518"/>
<path d="M104.089 51.7556L104.072 34.3926C104.052 17.6927 107.213 1.48059 128.289 0.117188C128.956 0.169987 131.646 0.292584 131.963 0.536484L132.42 0.519386C131.398 0.412286 126.606 0.755986 125.603 0.955986C104.126 5.23989 102.828 25.7446 104.589 43.4676C104.663 45.1896 104.442 49.6756 104.934 51.0366C115.57 51.2896 125.715 50.7216 136.096 50.7496L259.014 51.1966C294.055 51.1976 297.306 58.6816 297.294 92.8956L297.295 168.134C297.35 180.948 296.98 244.822 297.788 246.41L297.996 246.402C299.853 246.349 301.091 246.694 303.028 246.535C304.372 243.379 312.949 239.562 314.55 231.202C315.543 226.013 315.623 187.682 315.522 187.785L315.517 212.639C315.56 224.581 317.449 234.287 307.476 243.003C306.88 243.523 304.123 245.976 304.111 246.466C307.993 247.129 302.497 246.298 301.44 247.032H297.285L297.298 263.6C297.291 289.23 290.479 296.322 264.962 296.304L248.559 296.287V172.939C248.563 158.787 248.685 144.526 248.447 130.386C248.111 112.645 233.78 102.778 216.905 103.451C206.676 103.859 195.996 103.013 185.796 103.48C181.756 103.205 174.915 103.473 170.639 103.477L140.486 103.481C112.463 103.478 83.85 103.16 55.877 103.48C55.856 88.0616 52.56 70.3696 64.452 59.0666C74.617 49.4046 90.568 51.3976 104.089 51.7556Z" fill="url(#paint1_linear_1095_27901)"/>
<path d="M185.796 103.481C195.996 103.014 206.676 103.86 216.905 103.452C233.78 102.779 248.111 112.646 248.447 130.387C248.685 144.527 248.563 158.788 248.559 172.94C246.576 165.948 249.198 189.943 247.432 193.559C246.535 192.119 244.12 191.433 243.903 191.226C236.525 184.202 232.069 180.561 226.317 172.201L225.265 172.391C218.569 165.552 212.959 157.617 205.581 151.28C195.926 142.987 176.141 120.168 172.938 109.855C172.359 107.992 174.745 104.425 172.816 105.662L173.055 105.519L172.784 105.338C172.847 103.09 183.176 103.667 184.959 103.746L185.386 103.767L185.796 103.481Z" fill="#B52DC8"/>
<path d="M111.317 217.191L112.53 217.36C113.112 216.765 112.872 210.893 112.869 209.701L112.844 176.165C112.844 170.994 112.22 158.669 113.8 154.428C120.473 136.507 147.449 143.287 144.879 161.373C158.397 170.738 174.717 180.489 187.432 191.039C198.922 200.573 186.912 223.722 171.385 217.947C164.544 215.393 151.475 205.977 144.879 201.355L144.892 238.783C144.894 243.656 145.176 252.391 144.879 257.041V257.93C143.893 324.008 51.0749 313.02 56.4929 256.574C58.4059 228.047 84.1649 211.408 111.317 217.191Z" fill="#FFE9A9"/>
<path d="M86.7569 257.042C92.9119 242.638 110.109 243.095 113.462 257.931C113.558 257.455 113.5 257.675 113.885 257.241C115.301 256.822 141.936 256.836 144.879 257.042V257.931C143.893 324.009 51.0749 313.021 56.4929 256.575C58.8719 257.288 62.3589 257.093 64.9289 257.085L79.5849 257.016C81.1839 257.008 85.3199 256.886 86.7569 257.042Z" fill="url(#paint2_linear_1095_27901)"/>
<path d="M86.7564 257.042C92.9114 242.638 110.108 243.095 113.461 257.931C115.796 277.199 84.5994 279.681 86.7564 257.042Z" fill="#3C1596"/>
<defs>
<linearGradient id="paint0_linear_1095_27901" x1="6.34458" y1="341.727" x2="218.785" y2="137.515" gradientUnits="userSpaceOnUse">
<stop stop-color="#00186B"/>
<stop offset="1" stop-color="#B14EC8"/>
</linearGradient>
<linearGradient id="paint1_linear_1095_27901" x1="164.025" y1="286.021" x2="191.345" y2="42.3071" gradientUnits="userSpaceOnUse">
<stop stop-color="#FF7A02"/>
<stop offset="1" stop-color="#FFE507"/>
</linearGradient>
<linearGradient id="paint2_linear_1095_27901" x1="94.7328" y1="302.73" x2="101.812" y2="251.699" gradientUnits="userSpaceOnUse">
<stop stop-color="#FFA100"/>
<stop offset="1" stop-color="#F2BB0E"/>
</linearGradient>
</defs>
</svg>
